# xmcd CD database file
# Copyright (C) 1995-1998 Ti Kan
#
# Track frame offsets:
#	225
#	13062
#	31342
#	45190
#	56505
#	67712
#	81165
#	95405
#	110000
#	121232
#
# Disc length: 1757 seconds
#
# Revision: 1
# Processed by: cddbd v1.4PL0 Copyright (c) Steve Scherf et al.
# Submitted via: CDex 1.30Release
#
DISCID=7306da0a
DTITLE=Various Artist - Country Superstars
DYEAR=1900
DGENRE=Country
TTITLE0=High Noon \Tex Ritter
TTITLE1=You Gave Me A Mountain \Frankie Lane
TTITLE2=There Goes My Everything \Faron Young
TTITLE3=Honky Tonk Merry-Go-Round \Patsy Cline
TTITLE4=Waterloo \Stonewall Jackson
TTITLE5=Talk About Me \Johnny Paycheck
TTITLE6=So Much To Do \Willie Nelson
TTITLE7=Long Black Veil \Johnny Lee
TTITLE8=They Call The Wind Maria \Waylon Jennings
TTITLE9=All That's Keeping Me Alive \Donna Fargo
EXTD=ID3G:   2
EXTT0=
EXTT1=
EXTT2=
EXTT3=
EXTT4=
EXTT5=
EXTT6=
EXTT7=
EXTT8=
EXTT9=
PLAYORDER=
